<svg width="1200" height="900" viewBox="0 0 1200 900" fill="none" xmlns="http://www.w3.org/2000/svg">
  <rect width="1200" height="900" rx="48" fill="#EEF5F6"/>
  <circle cx="950" cy="170" r="180" fill="#5EA4B6" fill-opacity="0.18"/>
  <circle cx="230" cy="140" r="120" fill="#F2C36E" fill-opacity="0.22"/>
  <path d="M0 588C110 520 180 494 288 494C428 494 496 568 616 568C742 568 792 510 938 510C1042 510 1120 544 1200 588V900H0V588Z" fill="#1D4E59"/>
  <path d="M0 700C102 646 182 624 286 624C436 624 512 710 640 710C760 710 846 644 988 644C1088 644 1148 678 1200 700V900H0V700Z" fill="#2B6B78"/>
  <path d="M106 432C190 384 274 360 372 360C462 360 566 404 652 404C736 404 836 352 954 352C1030 352 1104 372 1182 418" stroke="#5EA4B6" stroke-width="20" stroke-linecap="round"/>
  <path d="M128 328C210 280 310 250 410 250C506 250 604 304 706 304C804 304 884 250 996 250" stroke="#1D4E59" stroke-width="18" stroke-linecap="round"/>
</svg>
